<svg width="472" height="472" viewBox="0 0 472 472" fill="none" xmlns="http://www.w3.org/2000/svg">
<path d="M118 193.594V73.75C118 69.8381 116.446 66.0863 113.68 63.3202C110.914 60.554 107.162 59 103.25 59C99.3381 59 95.5864 60.554 92.8202 63.3202C90.054 66.0863 88.5 69.8381 88.5 73.75V193.594C75.8089 196.843 64.5602 204.224 56.5273 214.573C48.4945 224.922 44.1343 237.649 44.1343 250.75C44.1343 263.851 48.4945 276.578 56.5273 286.927C64.5602 297.276 75.8089 304.657 88.5 307.906V398.25C88.5 402.162 90.054 405.914 92.8202 408.68C95.5864 411.446 99.3381 413 103.25 413C107.162 413 110.914 411.446 113.68 408.68C116.446 405.914 118 402.162 118 398.25V307.906C130.691 304.657 141.94 297.276 149.973 286.927C158.006 276.578 162.366 263.851 162.366 250.75C162.366 237.649 158.006 224.922 149.973 214.573C141.94 204.224 130.691 196.843 118 193.594ZM103.25 280.25C97.4155 280.25 91.712 278.52 86.8607 275.278C82.0095 272.037 78.2284 267.43 75.9956 262.039C73.7628 256.649 73.1786 250.717 74.3169 244.995C75.4551 239.272 78.2647 234.016 82.3904 229.89C86.516 225.765 91.7724 222.955 97.4949 221.817C103.217 220.679 109.149 221.263 114.539 223.496C119.93 225.728 124.537 229.509 127.778 234.361C131.02 239.212 132.75 244.915 132.75 250.75C132.75 258.574 129.642 266.077 124.11 271.61C118.577 277.142 111.074 280.25 103.25 280.25ZM250.75 105.094V73.75C250.75 69.8381 249.196 66.0863 246.43 63.3202C243.664 60.554 239.912 59 236 59C232.088 59 228.336 60.554 225.57 63.3202C222.804 66.0863 221.25 69.8381 221.25 73.75V105.094C208.559 108.343 197.31 115.724 189.277 126.073C181.244 136.422 176.884 149.149 176.884 162.25C176.884 175.351 181.244 188.078 189.277 198.427C197.31 208.776 208.559 216.157 221.25 219.406V398.25C221.25 402.162 222.804 405.914 225.57 408.68C228.336 411.446 232.088 413 236 413C239.912 413 243.664 411.446 246.43 408.68C249.196 405.914 250.75 402.162 250.75 398.25V219.406C263.441 216.157 274.69 208.776 282.723 198.427C290.756 188.078 295.116 175.351 295.116 162.25C295.116 149.149 290.756 136.422 282.723 126.073C274.69 115.724 263.441 108.343 250.75 105.094ZM236 191.75C230.165 191.75 224.462 190.02 219.611 186.778C214.759 183.537 210.978 178.93 208.746 173.539C206.513 168.149 205.929 162.217 207.067 156.495C208.205 150.772 211.015 145.516 215.14 141.39C219.266 137.265 224.522 134.455 230.245 133.317C235.967 132.179 241.899 132.763 247.289 134.996C252.68 137.228 257.287 141.009 260.528 145.861C263.77 150.712 265.5 156.415 265.5 162.25C265.5 170.074 262.392 177.577 256.86 183.11C251.327 188.642 243.824 191.75 236 191.75ZM427.75 309.75C427.738 296.67 423.387 283.963 415.38 273.62C407.372 263.277 396.16 255.882 383.5 252.594V73.75C383.5 69.8381 381.946 66.0863 379.18 63.3202C376.414 60.554 372.662 59 368.75 59C364.838 59 361.086 60.554 358.32 63.3202C355.554 66.0863 354 69.8381 354 73.75V252.594C341.309 255.843 330.06 263.224 322.027 273.573C313.994 283.922 309.634 296.649 309.634 309.75C309.634 322.851 313.994 335.578 322.027 345.927C330.06 356.276 341.309 363.657 354 366.906V398.25C354 402.162 355.554 405.914 358.32 408.68C361.086 411.446 364.838 413 368.75 413C372.662 413 376.414 411.446 379.18 408.68C381.946 405.914 383.5 402.162 383.5 398.25V366.906C396.16 363.618 407.372 356.223 415.38 345.88C423.387 335.537 427.738 322.83 427.75 309.75ZM368.75 339.25C362.915 339.25 357.212 337.52 352.361 334.278C347.509 331.037 343.728 326.43 341.496 321.039C339.263 315.649 338.679 309.717 339.817 303.995C340.955 298.272 343.765 293.016 347.89 288.89C352.016 284.765 357.272 281.955 362.995 280.817C368.717 279.679 374.649 280.263 380.039 282.496C385.43 284.728 390.037 288.509 393.278 293.361C396.52 298.212 398.25 303.915 398.25 309.75C398.25 317.574 395.142 325.077 389.61 330.61C384.077 336.142 376.574 339.25 368.75 339.25Z" fill="#FAFAFA"/>
</svg>
