<svg width="472" height="472" viewBox="0 0 472 472" fill="none" xmlns="http://www.w3.org/2000/svg">
<path d="M164.25 209.505V136.042C164.25 133.644 163.298 131.344 161.603 129.648C159.909 127.953 157.61 127 155.214 127C152.817 127 150.519 127.953 148.825 129.648C147.13 131.344 146.178 133.644 146.178 136.042V209.505C138.404 211.497 131.513 216.022 126.592 222.365C121.671 228.709 119 236.511 119 244.542C119 252.572 121.671 260.374 126.592 266.718C131.513 273.062 138.404 277.586 146.178 279.578V334.958C146.178 337.356 147.13 339.656 148.825 341.352C150.519 343.047 152.817 344 155.214 344C157.61 344 159.909 343.047 161.603 341.352C163.298 339.656 164.25 337.356 164.25 334.958V279.578C172.024 277.586 178.915 273.062 183.836 266.718C188.757 260.374 191.428 252.572 191.428 244.542C191.428 236.511 188.757 228.709 183.836 222.365C178.915 216.022 172.024 211.497 164.25 209.505ZM155.214 262.625C151.64 262.625 148.146 261.564 145.174 259.577C142.202 257.59 139.886 254.766 138.518 251.462C137.15 248.158 136.792 244.522 137.49 241.014C138.187 237.506 139.908 234.284 142.435 231.755C144.963 229.226 148.183 227.504 151.688 226.806C155.194 226.108 158.827 226.466 162.129 227.835C165.432 229.204 168.254 231.521 170.24 234.495C172.225 237.469 173.285 240.965 173.285 244.542C173.285 249.338 171.381 253.937 167.992 257.329C164.603 260.72 160.007 262.625 155.214 262.625ZM245.571 155.255V136.042C245.571 133.644 244.619 131.344 242.925 129.648C241.23 127.953 238.932 127 236.535 127C234.139 127 231.841 127.953 230.146 129.648C228.452 131.344 227.5 133.644 227.5 136.042V155.255C219.725 157.247 212.834 161.772 207.913 168.115C202.993 174.459 200.322 182.261 200.322 190.292C200.322 198.322 202.993 206.124 207.913 212.468C212.834 218.812 219.725 223.336 227.5 225.328V334.958C227.5 337.356 228.452 339.656 230.146 341.352C231.841 343.047 234.139 344 236.535 344C238.932 344 241.23 343.047 242.925 341.352C244.619 339.656 245.571 337.356 245.571 334.958V225.328C253.346 223.336 260.237 218.812 265.157 212.468C270.078 206.124 272.749 198.322 272.749 190.292C272.749 182.261 270.078 174.459 265.157 168.115C260.237 161.772 253.346 157.247 245.571 155.255ZM236.535 208.375C232.961 208.375 229.467 207.314 226.495 205.327C223.524 203.34 221.207 200.516 219.84 197.212C218.472 193.908 218.114 190.272 218.811 186.764C219.508 183.256 221.23 180.034 223.757 177.505C226.284 174.976 229.504 173.254 233.01 172.556C236.515 171.858 240.149 172.216 243.451 173.585C246.753 174.954 249.576 177.271 251.561 180.245C253.547 183.219 254.607 186.715 254.607 190.292C254.607 195.088 252.703 199.687 249.314 203.079C245.925 206.47 241.328 208.375 236.535 208.375ZM354 280.708C353.992 272.69 351.327 264.901 346.422 258.561C341.517 252.221 334.648 247.688 326.893 245.672V136.042C326.893 133.644 325.941 131.344 324.246 129.648C322.552 127.953 320.253 127 317.857 127C315.461 127 313.162 127.953 311.468 129.648C309.773 131.344 308.821 133.644 308.821 136.042V245.672C301.047 247.664 294.156 252.188 289.235 258.532C284.314 264.876 281.643 272.678 281.643 280.708C281.643 288.739 284.314 296.541 289.235 302.885C294.156 309.228 301.047 313.753 308.821 315.745V334.958C308.821 337.356 309.773 339.656 311.468 341.352C313.162 343.047 315.461 344 317.857 344C320.253 344 322.552 343.047 324.246 341.352C325.941 339.656 326.893 337.356 326.893 334.958V315.745C334.648 313.729 341.517 309.196 346.422 302.856C351.327 296.516 353.992 288.727 354 280.708ZM317.857 298.792C314.283 298.792 310.789 297.731 307.817 295.744C304.845 293.757 302.529 290.933 301.161 287.629C299.793 284.324 299.436 280.688 300.133 277.18C300.83 273.673 302.551 270.45 305.079 267.921C307.606 265.392 310.826 263.67 314.331 262.972C317.837 262.275 321.471 262.633 324.773 264.002C328.075 265.37 330.897 267.688 332.883 270.662C334.869 273.636 335.929 277.132 335.929 280.708C335.929 285.504 334.025 290.104 330.636 293.495C327.246 296.886 322.65 298.792 317.857 298.792Z" fill="#FAFAFA"/>
</svg>
