<svg width="143" height="157" viewBox="0 0 143 157" fill="none" xmlns="http://www.w3.org/2000/svg">
<path d="M43 46.7578V17.8125C43 16.8677 42.6247 15.9615 41.9566 15.2934C41.2885 14.6253 40.3823 14.25 39.4375 14.25C38.4927 14.25 37.5865 14.6253 36.9184 15.2934C36.2503 15.9615 35.875 16.8677 35.875 17.8125V46.7578C32.8098 47.5426 30.0929 49.3253 28.1528 51.8248C26.2126 54.3243 25.1596 57.3984 25.1596 60.5625C25.1596 63.7266 26.2126 66.8007 28.1528 69.3002C30.0929 71.7997 32.8098 73.5824 35.875 74.3672V96.1875C35.875 97.1323 36.2503 98.0385 36.9184 98.7066C37.5865 99.3747 38.4927 99.75 39.4375 99.75C40.3823 99.75 41.2885 99.3747 41.9566 98.7066C42.6247 98.0385 43 97.1323 43 96.1875V74.3672C46.0652 73.5824 48.7821 71.7997 50.7222 69.3002C52.6624 66.8007 53.7154 63.7266 53.7154 60.5625C53.7154 57.3984 52.6624 54.3243 50.7222 51.8248C48.7821 49.3253 46.0652 47.5426 43 46.7578ZM39.4375 67.6875C38.0283 67.6875 36.6508 67.2696 35.4791 66.4867C34.3074 65.7038 33.3941 64.591 32.8549 63.2891C32.3156 61.9872 32.1745 60.5546 32.4494 59.1725C32.7243 57.7904 33.4029 56.5208 34.3994 55.5244C35.3958 54.5279 36.6654 53.8493 38.0475 53.5744C39.4296 53.2995 40.8622 53.4406 42.1641 53.9799C43.466 54.5191 44.5788 55.4324 45.3617 56.6041C46.1446 57.7758 46.5625 59.1533 46.5625 60.5625C46.5625 62.4522 45.8118 64.2644 44.4756 65.6006C43.1394 66.9368 41.3272 67.6875 39.4375 67.6875ZM75.0625 25.3828V17.8125C75.0625 16.8677 74.6872 15.9615 74.0191 15.2934C73.351 14.6253 72.4448 14.25 71.5 14.25C70.5552 14.25 69.649 14.6253 68.9809 15.2934C68.3128 15.9615 67.9375 16.8677 67.9375 17.8125V25.3828C64.8723 26.1676 62.1554 27.9503 60.2153 30.4498C58.2751 32.9493 57.2221 36.0234 57.2221 39.1875C57.2221 42.3516 58.2751 45.4257 60.2153 47.9252C62.1554 50.4247 64.8723 52.2074 67.9375 52.9922V96.1875C67.9375 97.1323 68.3128 98.0385 68.9809 98.7066C69.649 99.3747 70.5552 99.75 71.5 99.75C72.4448 99.75 73.351 99.3747 74.0191 98.7066C74.6872 98.0385 75.0625 97.1323 75.0625 96.1875V52.9922C78.1277 52.2074 80.8446 50.4247 82.7847 47.9252C84.7249 45.4257 85.7779 42.3516 85.7779 39.1875C85.7779 36.0234 84.7249 32.9493 82.7847 30.4498C80.8446 27.9503 78.1277 26.1676 75.0625 25.3828ZM71.5 46.3125C70.0908 46.3125 68.7133 45.8946 67.5416 45.1117C66.3699 44.3288 65.4566 43.216 64.9174 41.9141C64.3781 40.6122 64.237 39.1796 64.5119 37.7975C64.7868 36.4154 65.4654 35.1458 66.4619 34.1494C67.4583 33.1529 68.7279 32.4743 70.11 32.1994C71.4921 31.9245 72.9247 32.0656 74.2266 32.6049C75.5285 33.1441 76.6413 34.0574 77.4242 35.2291C78.2071 36.4008 78.625 37.7783 78.625 39.1875C78.625 41.0772 77.8743 42.8894 76.5381 44.2256C75.2019 45.5618 73.3897 46.3125 71.5 46.3125ZM117.813 74.8125C117.81 71.6533 116.759 68.5843 114.825 66.0862C112.891 63.5881 110.183 61.8021 107.125 61.0078V17.8125C107.125 16.8677 106.75 15.9615 106.082 15.2934C105.413 14.6253 104.507 14.25 103.563 14.25C102.618 14.25 101.712 14.6253 101.043 15.2934C100.375 15.9615 100 16.8677 100 17.8125V61.0078C96.9348 61.7926 94.2179 63.5753 92.2778 66.0748C90.3376 68.5743 89.2846 71.6484 89.2846 74.8125C89.2846 77.9766 90.3376 81.0507 92.2778 83.5502C94.2179 86.0497 96.9348 87.8324 100 88.6172V96.1875C100 97.1323 100.375 98.0385 101.043 98.7066C101.712 99.3747 102.618 99.75 103.563 99.75C104.507 99.75 105.413 99.3747 106.082 98.7066C106.75 98.0385 107.125 97.1323 107.125 96.1875V88.6172C110.183 87.8229 112.891 86.0369 114.825 83.5388C116.759 81.0407 117.81 77.9717 117.813 74.8125ZM103.563 81.9375C102.153 81.9375 100.776 81.5196 99.6041 80.7367C98.4324 79.9538 97.5191 78.841 96.9799 77.5391C96.4406 76.2372 96.2995 74.8046 96.5744 73.4225C96.8493 72.0404 97.5279 70.7708 98.5244 69.7744C99.5208 68.7779 100.79 68.0993 102.172 67.8244C103.555 67.5495 104.987 67.6906 106.289 68.2299C107.591 68.7691 108.704 69.6824 109.487 70.8541C110.27 72.0258 110.688 73.4033 110.688 74.8125C110.688 76.7022 109.937 78.5144 108.601 79.8506C107.264 81.1868 105.452 81.9375 103.563 81.9375Z" fill="#FAFAFA"/>
<path d="M18.26 132.644V148H15.18V138.012L11.066 148H8.734L4.598 138.012V148H1.518V132.644H5.016L9.9 144.062L14.784 132.644H18.26ZM30.7211 145.074H24.6051L23.5931 148H20.3591L25.8811 132.622H29.4671L34.9891 148H31.7331L30.7211 145.074ZM29.8851 142.61L27.6631 136.186L25.4411 142.61H29.8851ZM40.0892 132.644V142.148C40.0892 143.189 40.3605 143.989 40.9032 144.546C41.4458 145.089 42.2085 145.36 43.1912 145.36C44.1885 145.36 44.9585 145.089 45.5012 144.546C46.0438 143.989 46.3152 143.189 46.3152 142.148V132.644H49.4172V142.126C49.4172 143.431 49.1312 144.539 48.5592 145.448C48.0018 146.343 47.2465 147.017 46.2932 147.472C45.3545 147.927 44.3058 148.154 43.1472 148.154C42.0032 148.154 40.9618 147.927 40.0232 147.472C39.0992 147.017 38.3658 146.343 37.8232 145.448C37.2805 144.539 37.0092 143.431 37.0092 142.126V132.644H40.0892ZM55.473 132.644V148H52.393V132.644H55.473ZM74.4502 137.264C74.0982 136.619 73.6142 136.127 72.9982 135.79C72.3822 135.453 71.6636 135.284 70.8422 135.284C69.9329 135.284 69.1262 135.489 68.4222 135.9C67.7182 136.311 67.1682 136.897 66.7722 137.66C66.3762 138.423 66.1782 139.303 66.1782 140.3C66.1782 141.327 66.3762 142.221 66.7722 142.984C67.1829 143.747 67.7476 144.333 68.4662 144.744C69.1849 145.155 70.0209 145.36 70.9742 145.36C72.1476 145.36 73.1082 145.052 73.8562 144.436C74.6042 143.805 75.0956 142.933 75.3302 141.818H70.0502V139.464H78.3662V142.148C78.1609 143.219 77.7209 144.209 77.0462 145.118C76.3716 146.027 75.4989 146.761 74.4282 147.318C73.3722 147.861 72.1842 148.132 70.8642 148.132C69.3829 148.132 68.0409 147.802 66.8382 147.142C65.6502 146.467 64.7116 145.536 64.0222 144.348C63.3476 143.16 63.0102 141.811 63.0102 140.3C63.0102 138.789 63.3476 137.44 64.0222 136.252C64.7116 135.049 65.6502 134.118 66.8382 133.458C68.0409 132.783 69.3756 132.446 70.8422 132.446C72.5729 132.446 74.0762 132.871 75.3522 133.722C76.6282 134.558 77.5082 135.739 77.9922 137.264H74.4502ZM79.853 141.862C79.853 140.63 80.095 139.537 80.579 138.584C81.0776 137.631 81.745 136.897 82.581 136.384C83.4316 135.871 84.3776 135.614 85.419 135.614C86.3283 135.614 87.1203 135.797 87.795 136.164C88.4843 136.531 89.0343 136.993 89.445 137.55V135.812H92.547V148H89.445V146.218C89.049 146.79 88.499 147.267 87.795 147.648C87.1056 148.015 86.3063 148.198 85.397 148.198C84.3703 148.198 83.4316 147.934 82.581 147.406C81.745 146.878 81.0776 146.137 80.579 145.184C80.095 144.216 79.853 143.109 79.853 141.862ZM89.445 141.906C89.445 141.158 89.2983 140.52 89.005 139.992C88.7116 139.449 88.3156 139.039 87.817 138.76C87.3183 138.467 86.783 138.32 86.211 138.32C85.639 138.32 85.111 138.459 84.627 138.738C84.143 139.017 83.747 139.427 83.439 139.97C83.1456 140.498 82.999 141.129 82.999 141.862C82.999 142.595 83.1456 143.241 83.439 143.798C83.747 144.341 84.143 144.759 84.627 145.052C85.1256 145.345 85.6536 145.492 86.211 145.492C86.783 145.492 87.3183 145.353 87.817 145.074C88.3156 144.781 88.7116 144.37 89.005 143.842C89.2983 143.299 89.445 142.654 89.445 141.906ZM98.6351 131.72V148H95.5551V131.72H98.6351ZM104.758 131.72V148H101.678V131.72H104.758ZM119.131 141.642C119.131 142.082 119.102 142.478 119.043 142.83H110.133C110.207 143.71 110.515 144.399 111.057 144.898C111.6 145.397 112.267 145.646 113.059 145.646C114.203 145.646 115.017 145.155 115.501 144.172H118.823C118.471 145.345 117.797 146.313 116.799 147.076C115.802 147.824 114.577 148.198 113.125 148.198C111.952 148.198 110.896 147.941 109.957 147.428C109.033 146.9 108.307 146.159 107.779 145.206C107.266 144.253 107.009 143.153 107.009 141.906C107.009 140.645 107.266 139.537 107.779 138.584C108.293 137.631 109.011 136.897 109.935 136.384C110.859 135.871 111.923 135.614 113.125 135.614C114.284 135.614 115.318 135.863 116.227 136.362C117.151 136.861 117.863 137.572 118.361 138.496C118.875 139.405 119.131 140.454 119.131 141.642ZM115.941 140.762C115.927 139.97 115.641 139.339 115.083 138.87C114.526 138.386 113.844 138.144 113.037 138.144C112.275 138.144 111.629 138.379 111.101 138.848C110.588 139.303 110.273 139.941 110.155 140.762H115.941ZM124.459 137.704C124.855 137.059 125.369 136.553 125.999 136.186C126.645 135.819 127.378 135.636 128.199 135.636V138.87H127.385C126.417 138.87 125.684 139.097 125.185 139.552C124.701 140.007 124.459 140.799 124.459 141.928V148H121.379V135.812H124.459V137.704ZM141.934 135.812L134.388 153.764H131.11L133.75 147.692L128.866 135.812H132.32L135.466 144.326L138.656 135.812H141.934Z" fill="white"/>
</svg>
