<svg width="106" height="106" viewBox="0 0 106 106" fill="none" xmlns="http://www.w3.org/2000/svg">
<path d="M87.6405 68.5439C93.2303 66.1258 96.0625 59.7782 96.0625 49.6875C96.0625 39.5968 93.2303 33.2492 87.6405 30.827C82.8166 28.7566 76.3614 29.9036 68.4031 34.2844C72.7839 26.3261 73.9474 19.8709 71.8605 15.047C69.4383 9.45719 63.0907 6.625 53 6.625C42.9093 6.625 36.5617 9.45719 34.1395 15.047C32.0691 19.8709 33.2161 26.3261 37.5969 34.2802C29.6386 29.9036 23.1875 28.7359 18.3595 30.827C12.7697 33.2492 9.9375 39.5968 9.9375 49.6875C9.9375 59.7782 12.7697 66.1258 18.3595 68.5439C19.9905 69.2359 21.7471 69.5827 23.5187 69.5625C27.4937 69.5625 32.2141 68.0636 37.5969 65.0948C33.2161 73.0448 32.0526 79.5 34.1395 84.3238C36.5617 89.9137 42.9093 92.75 53 92.75C63.0907 92.75 69.4383 89.9137 71.8605 84.3238C72.6733 82.3602 73.0055 80.2308 72.8295 78.1129C77.1564 84.8331 80.9616 92.3898 82.9119 100.195C83.0942 100.908 83.509 101.541 84.0909 101.992C84.6728 102.444 85.3885 102.688 86.125 102.688C86.3972 102.687 86.6683 102.654 86.9324 102.588C87.7845 102.375 88.5171 101.832 88.969 101.079C89.4209 100.326 89.5552 99.4239 89.3423 98.5717C86.4687 87.0773 80.1211 76.2952 73.6659 67.604C76.9149 68.9097 79.8533 69.5625 82.4812 69.5625C84.2529 69.5827 86.0095 69.2359 87.6405 68.5439ZM85.0029 36.9095C88.6673 38.5078 89.4375 44.7188 89.4375 49.6875C89.4375 54.6562 88.6673 60.8672 85.007 62.4655C81.5455 63.9685 75.2683 61.923 67.3348 56.7059C64.0903 54.5421 60.9741 52.1917 58.0019 49.6668C65.6248 43.2157 78.8375 34.2347 85.0029 36.9095ZM40.222 17.6805C41.8203 14.0202 48.0312 13.25 53 13.25C57.9688 13.25 64.1797 14.0202 65.778 17.6805C67.281 21.142 65.2355 27.4192 60.0184 35.3527C57.8546 38.5972 55.5042 41.7134 52.9793 44.6856C46.5282 37.0627 37.5513 23.8459 40.222 17.6805ZM20.9971 62.4655C17.3327 60.8672 16.5625 54.6562 16.5625 49.6875C16.5625 44.7188 17.3327 38.5078 20.993 36.9095C21.8206 36.574 22.7088 36.4133 23.6016 36.4375C27.2246 36.4375 32.4377 38.5782 38.6734 42.6774C41.918 44.8412 45.0342 47.1915 48.0064 49.7165C40.3752 56.1552 27.1584 65.1403 20.9971 62.4655ZM65.778 81.6904C64.1797 85.3548 57.9688 86.125 53 86.125C48.0312 86.125 41.8203 85.3548 40.222 81.6945C38.719 78.233 40.7645 71.9558 45.9816 64.0223C48.1454 60.7778 50.4958 57.6616 53.0207 54.6894C59.4718 62.3123 68.4487 75.5291 65.778 81.6904Z" fill="white"/>
</svg>
