<svg width="400" height="400" viewBox="0 0 400 400" fill="none" xmlns="http://www.w3.org/2000/svg">
<path d="M297.212 244.346C312.98 237.525 320.969 219.62 320.969 191.156C320.969 162.693 312.98 144.788 297.212 137.955C283.605 132.115 265.397 135.351 242.948 147.708C255.306 125.259 258.588 107.051 252.701 93.444C245.868 77.6764 227.963 69.6875 199.5 69.6875C171.037 69.6875 153.132 77.6764 146.299 93.444C140.459 107.051 143.694 125.259 156.052 147.696C133.603 135.351 115.406 132.057 101.788 137.955C86.0202 144.788 78.0312 162.693 78.0312 191.156C78.0312 219.62 86.0202 237.525 101.788 244.346C106.388 246.297 111.343 247.276 116.341 247.219C127.553 247.219 140.868 242.991 156.052 234.616C143.694 257.041 140.412 275.25 146.299 288.857C153.132 304.624 171.037 312.625 199.5 312.625C227.963 312.625 245.868 304.624 252.701 288.857C254.994 283.318 255.931 277.311 255.434 271.337C267.639 290.293 278.373 311.609 283.874 333.625C284.388 335.638 285.558 337.422 287.2 338.695C288.841 339.969 290.86 340.659 292.938 340.656C293.705 340.655 294.47 340.561 295.215 340.376C297.619 339.775 299.685 338.243 300.96 336.119C302.234 333.994 302.613 331.45 302.013 329.047C293.907 296.624 276.002 266.21 257.793 241.694C266.958 245.377 275.247 247.219 282.659 247.219C287.657 247.276 292.612 246.297 297.212 244.346ZM289.772 155.113C300.109 159.621 302.281 177.141 302.281 191.156C302.281 205.172 300.109 222.691 289.784 227.2C280.02 231.439 262.313 225.67 239.935 210.953C230.783 204.85 221.993 198.22 213.609 191.098C235.111 172.901 272.381 147.568 289.772 155.113ZM163.456 100.872C167.965 90.5474 185.484 88.375 199.5 88.375C213.516 88.375 231.035 90.5474 235.544 100.872C239.783 110.636 234.013 128.343 219.297 150.721C213.194 159.873 206.564 168.663 199.442 177.047C181.245 155.545 155.923 118.263 163.456 100.872ZM109.228 227.2C98.8912 222.691 96.7188 205.172 96.7188 191.156C96.7188 177.141 98.8912 159.621 109.216 155.113C111.551 154.166 114.056 153.713 116.574 153.781C126.794 153.781 141.499 159.82 159.088 171.383C168.24 177.486 177.031 184.116 185.414 191.238C163.889 209.4 126.607 234.745 109.228 227.2ZM235.544 281.429C231.035 291.765 213.516 293.938 199.5 293.938C185.484 293.938 167.965 291.765 163.456 281.44C159.217 271.676 164.987 253.97 179.703 231.591C185.806 222.439 192.436 213.649 199.558 205.265C217.755 226.768 243.077 264.049 235.544 281.429Z" fill="#61B960"/>
</svg>
